# xmcd
#
# Track frame offsets:
#	150
#	12034
#	28171
#	42614
#	57943
#	73185
#	87462
#	104035
#	117487
#	127127
#
# Disc length: 1946 seconds
#
# Revision: 1
# Processed by: cddbd v1.5.2PL0 Copyright (c) Steve Scherf et al.
# Submitted via: audiograbber 1.83.01
#
DISCID=9807980a
DTITLE=Chris Rumfelt - Back To Our Foundation
DYEAR=1900
DGENRE=Gospel
TTITLE0=But For The Blood
TTITLE1=Love Held Him To The Cross
TTITLE2=Days Of Old
TTITLE3=Reach Heaven
TTITLE4=Back To Our Foundation
TTITLE5=I Wanted You To Know
TTITLE6=The Blood Says
TTITLE7=The Son Shall Shine Again
TTITLE8=There's Hope In The Blood
TTITLE9=Love Came Through
EXTD=
EXTT0=
EXTT1=
EXTT2=
EXTT3=
EXTT4=
EXTT5=
EXTT6=
EXTT7=
EXTT8=
EXTT9=
PLAYORDER=
